<?xml version="1.0" encoding="UTF-8" standalone="no"?>
<svg
   xmlns:dc="http://purl.org/dc/elements/1.1/"
   xmlns:cc="http://creativecommons.org/ns#"
   xmlns:rdf="http://www.w3.org/1999/02/22-rdf-syntax-ns#"
   xmlns:svg="http://www.w3.org/2000/svg"
   xmlns="http://www.w3.org/2000/svg"
   xmlns:sodipodi="http://sodipodi.sourceforge.net/DTD/sodipodi-0.dtd"
   xmlns:inkscape="http://www.inkscape.org/namespaces/inkscape"
   width="38.563011mm"
   height="37.991009mm"
   viewBox="0 0 38.563011 37.991009"
   version="1.1"
   id="svg8"
   inkscape:version="1.0.2 (1.0.2+r75+1)"
   sodipodi:docname="stick-figure-on-computer.svg">
  <defs
     id="defs2" />
  <sodipodi:namedview
     id="base"
     pagecolor="#ffffff"
     bordercolor="#666666"
     borderopacity="1.0"
     inkscape:pageopacity="0.0"
     inkscape:pageshadow="2"
     inkscape:zoom="2.8284271"
     inkscape:cx="-31.558795"
     inkscape:cy="-57.663822"
     inkscape:document-units="mm"
     inkscape:current-layer="layer1"
     inkscape:document-rotation="0"
     showgrid="false"
     inkscape:window-width="2556"
     inkscape:window-height="1392"
     inkscape:window-x="0"
     inkscape:window-y="46"
     inkscape:window-maximized="0"
     lock-margins="true"
     fit-margin-top="1"
     fit-margin-left="1"
     fit-margin-right="1"
     fit-margin-bottom="1" />
  <metadata
     id="metadata5">
    <rdf:RDF>
      <cc:Work
         rdf:about="">
        <dc:format>image/svg+xml</dc:format>
        <dc:type
           rdf:resource="http://purl.org/dc/dcmitype/StillImage" />
        <dc:title></dc:title>
      </cc:Work>
    </rdf:RDF>
  </metadata>
  <g
     inkscape:label="Layer 1"
     inkscape:groupmode="layer"
     id="layer1"
     transform="translate(-43.745098,-17.573702)">
    <g
       id="g993"
       transform="translate(-7.8056026,0.37628156)">
      <path
         style="fill:none;stroke:#000000;stroke-width:0.197184px;stroke-linecap:butt;stroke-linejoin:miter;stroke-opacity:1"
         d="m 81.041404,19.135635 c -1.22169,0.06282 -1.694451,0.362107 -2.454862,0.997824 -0.402288,0.336321 -0.859056,0.758879 -1.19273,1.152949 -0.82253,0.971408 -1.335679,2.287983 -1.646435,3.508608 -0.122747,0.482146 -0.238936,1.241859 -0.128165,1.752275 0.463265,2.134679 3.791238,4.934978 6.023772,4.790362 1.904979,-0.1234 3.496013,-1.141961 4.712554,-2.567571 1.902523,-2.22948 1.596727,-3.799722 0.65069,-6.311433 -0.197814,-0.52519 -0.418721,-1.183173 -0.82815,-1.594083 -1.008264,-1.011919 -3.73214,-1.879254 -5.074245,-1.7452 -0.570023,0.05694 -0.907607,0.04586 -1.405607,0.289775"
         id="path24"
         sodipodi:nodetypes="csssssssssc" />
      <path
         style="fill:none;stroke:#000000;stroke-width:0.155832px;stroke-linecap:butt;stroke-linejoin:miter;stroke-opacity:1"
         d="m 78.228885,19.352335 c 0.447591,-0.468755 0.328118,-0.544323 0.836103,-0.827525 0.28703,-0.16002 0.777394,-0.308861 1.127742,-0.223148 0.388865,0.09514 1.686414,0.861989 1.449711,0.879693 -0.256435,0.01918 -0.343922,-0.04142 -0.601037,-0.04572 -0.106481,0.03526 -0.635707,0.0343 -0.747864,0.03581 -0.138972,0.0019 -1.018174,-0.587912 -1.090873,-0.628579 -0.475308,-0.265885 -1.211766,-0.146317 -1.764029,0.0809 -0.256629,0.105584 -0.556063,0.373264 -0.62107,0.589662"
         id="path38"
         sodipodi:nodetypes="csssccssc" />
      <path
         style="fill:none;stroke:#000000;stroke-width:0.264583px;stroke-linecap:butt;stroke-linejoin:miter;stroke-opacity:1"
         d="m 76.916205,22.411405 c 1.788303,0.01504 2.020299,0.365199 2.451085,0.861358"
         id="path56"
         sodipodi:nodetypes="cc" />
      <path
         style="fill:none;stroke:#000000;stroke-width:0.264583px;stroke-linecap:butt;stroke-linejoin:miter;stroke-opacity:1"
         d="m 77.235413,29.157289 c 1.18178,0.04153 1.503627,-0.192843 2.727179,-0.675258"
         id="path60"
         sodipodi:nodetypes="cc" />
      <ellipse
         style="fill:#000000;fill-rule:evenodd;stroke-width:0.264583"
         id="path62"
         cx="77.302994"
         cy="24.661976"
         rx="0.54076648"
         ry="0.98423094" />
      <path
         style="fill:none;stroke:#000000;stroke-width:0.264583px;stroke-linecap:butt;stroke-linejoin:miter;stroke-opacity:1"
         d="m 83.111347,31.075058 c 6.454767,14.942544 5.855729,23.103687 5.855729,23.103687"
         id="path78"
         sodipodi:nodetypes="cc" />
      <path
         style="fill:none;stroke:#000000;stroke-width:0.264583px;stroke-linecap:butt;stroke-linejoin:miter;stroke-opacity:1"
         d="m 68.018179,43.519575 10.798996,1.469428 5.787692,-10.11719 -3.237798,8.37378 -11.268453,-2.27622"
         id="path80"
         sodipodi:nodetypes="ccccc" />
      <ellipse
         style="fill:#000000;stroke-width:0.264583"
         id="path84"
         cx="70.597809"
         cy="41.202694"
         rx="0.94097894"
         ry="0.37759301" />
      <ellipse
         style="fill:#000000;stroke-width:0.264583"
         id="path86"
         cx="67.527267"
         cy="43.446594"
         rx="1.1950907"
         ry="0.51277262" />
    </g>
    <path
       style="fill:none;stroke:#000000;stroke-width:0.264583px;stroke-linecap:round;stroke-linejoin:round;stroke-opacity:1"
       d="m 60.03717,39.750886 c -9.739064,5.15889 -9.739064,5.15889 -9.739064,5.15889 l 10.591448,1.206765 7.573777,-6.037598 z"
       id="path91" />
    <path
       style="fill:none;stroke:#000000;stroke-width:0.209306px;stroke-linecap:butt;stroke-linejoin:miter;stroke-opacity:1"
       d="m 59.891797,40.416268 c -7.704379,4.081095 -7.704379,4.081095 -7.704379,4.081095 l 8.378682,0.954647 5.991463,-4.776222 z"
       id="path93" />
    <path
       style="fill:none;stroke:#000000;stroke-width:0.165;stroke-linecap:butt;stroke-linejoin:miter;stroke-miterlimit:4;stroke-dasharray:none;stroke-opacity:1"
       d="m 60.723966,40.436459 -7.40317,4.154994"
       id="path95"
       sodipodi:nodetypes="cc" />
    <path
       style="fill:none;stroke:#000000;stroke-width:0.165;stroke-linecap:butt;stroke-linejoin:miter;stroke-miterlimit:4;stroke-dasharray:none;stroke-opacity:1"
       d="m 61.889309,40.526939 -7.396055,4.190118"
       id="path920"
       sodipodi:nodetypes="cc" />
    <path
       style="fill:none;stroke:#000000;stroke-width:0.165;stroke-linecap:butt;stroke-linejoin:miter;stroke-miterlimit:4;stroke-dasharray:none;stroke-opacity:1"
       d="m 63.058301,40.564642 -7.282507,4.303962"
       id="path922"
       sodipodi:nodetypes="cc" />
    <path
       style="fill:none;stroke:#000000;stroke-width:0.165;stroke-linecap:butt;stroke-linejoin:miter;stroke-miterlimit:4;stroke-dasharray:none;stroke-opacity:1"
       d="m 64.313511,40.622175 -6.966032,4.48685"
       id="path924"
       sodipodi:nodetypes="cc" />
    <path
       style="fill:none;stroke:#000000;stroke-width:0.165;stroke-linecap:butt;stroke-linejoin:miter;stroke-miterlimit:4;stroke-dasharray:none;stroke-opacity:1"
       d="m 65.69916,40.668572 -6.720384,4.598673"
       id="path926"
       sodipodi:nodetypes="cc" />
    <path
       style="fill:none;stroke:#000000;stroke-width:0.165;stroke-linecap:butt;stroke-linejoin:miter;stroke-miterlimit:4;stroke-dasharray:none;stroke-opacity:1"
       d="m 53.552563,43.771142 c 8.043373,0.826254 8.053305,0.826254 8.053305,0.826254"
       id="path928" />
    <path
       style="fill:none;stroke:#000000;stroke-width:0.165;stroke-linecap:butt;stroke-linejoin:miter;stroke-miterlimit:4;stroke-dasharray:none;stroke-opacity:1"
       d="m 55.711111,42.617147 7.513238,0.742602"
       id="path930"
       sodipodi:nodetypes="cc" />
    <path
       style="fill:none;stroke:#000000;stroke-width:0.165;stroke-linecap:butt;stroke-linejoin:miter;stroke-miterlimit:4;stroke-dasharray:none;stroke-opacity:1"
       d="m 57.597136,41.634071 7.173555,0.509241"
       id="path932"
       sodipodi:nodetypes="cc" />
    <path
       style="fill:none;stroke:#000000;stroke-width:0.165;stroke-linecap:butt;stroke-linejoin:miter;stroke-miterlimit:4;stroke-dasharray:none;stroke-opacity:1"
       d="m 58.755955,40.993998 7.014838,0.353951"
       id="path934"
       sodipodi:nodetypes="cc" />
    <path
       style="fill:none;stroke:#000000;stroke-width:0.264583px;stroke-linecap:round;stroke-linejoin:round;stroke-opacity:1"
       d="m 60.793615,47.061639 -10.591448,-1.206765 10.591448,1.206765 7.573777,-6.037598 z"
       id="path936"
       sodipodi:nodetypes="ccccc" />
    <path
       style="fill:none;stroke:#000000;stroke-width:0.264583px;stroke-linecap:butt;stroke-linejoin:miter;stroke-opacity:1"
       d="m 60.793613,47.061638 c 0.09594,-0.945097 0.09594,-0.945097 0.09594,-0.945097"
       id="path938" />
    <path
       style="fill:none;stroke:#000000;stroke-width:0.264583px;stroke-linecap:butt;stroke-linejoin:miter;stroke-opacity:1"
       d="m 50.202165,45.854873 c 0.09594,-0.945097 0.09594,-0.945097 0.09594,-0.945097"
       id="path940" />
    <path
       style="fill:none;stroke:#000000;stroke-width:0.264583px;stroke-linecap:round;stroke-linejoin:miter;stroke-opacity:1"
       d="m 68.367392,41.024041 0.09594,-0.945098"
       id="path942"
       sodipodi:nodetypes="cc" />
    <path
       style="fill:none;stroke:#000000;stroke-width:0.264583px;stroke-linecap:butt;stroke-linejoin:miter;stroke-opacity:1"
       d="m 46.348432,47.242049 c -0.240858,5.301869 -0.240858,5.301869 -0.240858,5.301869"
       id="path944" />
    <path
       style="fill:none;stroke:#000000;stroke-width:0.264583px;stroke-linecap:round;stroke-linejoin:round;stroke-opacity:1"
       d="m 61.461925,53.61538 0.02097,-5.321379 -15.134463,-1.051952 c 3.798186,-1.889219 3.844844,-1.887108 3.844844,-1.887108"
       id="path946"
       sodipodi:nodetypes="cccc" />
    <path
       style="fill:none;stroke:#000000;stroke-width:0.264583px;stroke-linecap:round;stroke-linejoin:round;stroke-opacity:1"
       d="m 61.482895,48.294001 c 9.492433,-8.338113 9.492433,-8.338113 9.492433,-8.338113 0.07163,1.391363 0.07163,1.391363 0.07163,1.391363"
       id="path948" />
    <path
       style="fill:none;stroke:#000000;stroke-width:0.264583px;stroke-linecap:round;stroke-linejoin:round;stroke-opacity:1"
       d="m 70.975328,39.955888 -2.529836,0.312848"
       id="path950"
       sodipodi:nodetypes="cc" />
    <path
       id="path954"
       style="fill:none;stroke:#000000;stroke-width:0.264583px;stroke-linecap:round;stroke-linejoin:round;stroke-opacity:1"
       d="M 60.03717,39.750886 55.887323,28.142715 M 50.298106,44.909776 44.877385,32.723874 55.887323,28.142715"
       sodipodi:nodetypes="ccccc" />
    <path
       id="path956"
       style="fill:none;stroke:#000000;stroke-width:0.999999px;stroke-linecap:round;stroke-linejoin:round;stroke-opacity:1"
       d="m 210.39822,108.40213 -38.5996,16.0966 19.03732,42.71611 33.68554,-17.98828 z"
       transform="scale(0.26458333)"
       sodipodi:nodetypes="ccccc" />
  </g>
</svg>
