<?xml version="1.0" encoding="UTF-8" standalone="no"?>
<svg
   xmlns:dc="http://purl.org/dc/elements/1.1/"
   xmlns:cc="http://creativecommons.org/ns#"
   xmlns:rdf="http://www.w3.org/1999/02/22-rdf-syntax-ns#"
   xmlns:svg="http://www.w3.org/2000/svg"
   xmlns="http://www.w3.org/2000/svg"
   xmlns:sodipodi="http://sodipodi.sourceforge.net/DTD/sodipodi-0.dtd"
   xmlns:inkscape="http://www.inkscape.org/namespaces/inkscape"
   width="21.334864mm"
   height="37.72525mm"
   viewBox="0 0 21.334864 37.72525"
   version="1.1"
   id="svg8"
   inkscape:version="1.0.2 (1.0.2+r75+1)"
   sodipodi:docname="stick-figure-thinking.svg">
  <defs
     id="defs2" />
  <sodipodi:namedview
     id="base"
     pagecolor="#ffffff"
     bordercolor="#666666"
     borderopacity="1.0"
     inkscape:pageopacity="0.0"
     inkscape:pageshadow="2"
     inkscape:zoom="5.6568542"
     inkscape:cx="33.8231"
     inkscape:cy="87.259568"
     inkscape:document-units="mm"
     inkscape:current-layer="layer1"
     inkscape:document-rotation="0"
     showgrid="false"
     inkscape:window-width="2556"
     inkscape:window-height="1392"
     inkscape:window-x="0"
     inkscape:window-y="46"
     inkscape:window-maximized="0"
     lock-margins="true"
     fit-margin-top="1"
     fit-margin-left="1"
     fit-margin-right="1"
     fit-margin-bottom="1"
     inkscape:snap-bbox="true"
     inkscape:snap-global="true" />
  <metadata
     id="metadata5">
    <rdf:RDF>
      <cc:Work
         rdf:about="">
        <dc:format>image/svg+xml</dc:format>
        <dc:type
           rdf:resource="http://purl.org/dc/dcmitype/StillImage" />
        <dc:title></dc:title>
      </cc:Work>
    </rdf:RDF>
  </metadata>
  <g
     inkscape:label="Layer 1"
     inkscape:groupmode="layer"
     id="layer1"
     transform="translate(-59.711197,-17.601419)">
    <path
       style="fill:none;stroke:#000000;stroke-width:0.197184px;stroke-linecap:butt;stroke-linejoin:miter;stroke-opacity:1"
       d="m 73.235801,19.511917 c -1.22169,0.06282 -1.694451,0.362107 -2.454862,0.997824 -0.402288,0.336321 -0.859056,0.758879 -1.19273,1.152949 -0.82253,0.971408 -1.335679,2.287983 -1.646435,3.508608 -0.122747,0.482146 -0.238936,1.241859 -0.128165,1.752275 0.463265,2.134679 3.791238,4.934978 6.023772,4.790362 1.904979,-0.1234 3.496013,-1.141961 4.712554,-2.567571 1.902523,-2.22948 1.596727,-3.799722 0.65069,-6.311433 -0.197814,-0.52519 -0.418721,-1.183173 -0.82815,-1.594083 -1.008264,-1.011919 -3.73214,-1.879254 -5.074245,-1.7452 -0.570023,0.05694 -0.907607,0.04586 -1.405607,0.289775"
       id="path24"
       sodipodi:nodetypes="csssssssssc" />
    <path
       style="fill:none;stroke:#000000;stroke-width:0.155832px;stroke-linecap:butt;stroke-linejoin:miter;stroke-opacity:1"
       d="m 76.23814,19.63506 c -0.377827,-0.563017 -0.491807,-0.553834 -0.690308,-0.661309 -0.430233,-0.232943 -1.104655,-0.342735 -1.638581,-0.243645 -0.393613,0.07305 -0.305147,0.717454 0.0034,0.770108 0.253487,0.04326 -0.419745,0.016 -0.67686,0.0117 -0.106481,0.03526 1.183525,0.01979 1.071368,0.0213 -0.138972,0.0019 0.292533,-0.54028 0.363648,-0.583658 0.381044,-0.232421 0.901656,-0.331301 1.457991,-0.231349 0.273128,0.04907 1.00682,0.752183 0.941813,0.968581"
       id="path38"
       sodipodi:nodetypes="csssccssc" />
    <path
       style="fill:none;stroke:#000000;stroke-width:0.264583px;stroke-linecap:butt;stroke-linejoin:miter;stroke-opacity:1"
       d="m 69.110602,22.787687 c 1.788303,0.01504 2.020299,0.365199 2.451085,0.861358"
       id="path56"
       sodipodi:nodetypes="cc" />
    <path
       style="fill:none;stroke:#000000;stroke-width:0.264583px;stroke-linecap:butt;stroke-linejoin:miter;stroke-opacity:1"
       d="m 69.42981,29.533571 c 1.18178,0.04153 1.503627,-0.192843 2.727179,-0.675258"
       id="path60"
       sodipodi:nodetypes="cc" />
    <ellipse
       style="fill:#000000;fill-rule:evenodd;stroke-width:0.264583"
       id="path62"
       cx="69.497391"
       cy="25.038258"
       rx="0.54076648"
       ry="0.98423094" />
    <path
       style="fill:none;stroke:#000000;stroke-width:0.264583px;stroke-linecap:butt;stroke-linejoin:miter;stroke-opacity:1"
       d="m 75.305744,31.45134 c 1.792663,15.708758 0.168589,22.845978 0.168589,22.845978"
       id="path78"
       sodipodi:nodetypes="cc" />
    <path
       style="fill:none;stroke:#000000;stroke-width:0.265;stroke-linecap:round;stroke-linejoin:round;stroke-miterlimit:4;stroke-dasharray:none;stroke-opacity:1"
       d="m 62.305451,43.592249 8.399686,-0.100905 5.063609,-7.463764 -4.820052,3.435797 0.764107,-6.791592"
       id="path80"
       sodipodi:nodetypes="ccccc" />
    <ellipse
       style="fill:#000000;stroke-width:0.264583"
       id="path84"
       ry="0.37759301"
       rx="0.94097894"
       cy="-65.953568"
       cx="42.543598"
       transform="rotate(81.321654)" />
    <ellipse
       style="fill:#000000;stroke-width:0.264583"
       id="path86"
       cx="61.906288"
       cy="43.551674"
       rx="1.1950907"
       ry="0.51277262" />
  </g>
</svg>
